<svg height="464pt" viewBox="0 0 464 464" width="464pt" xmlns="http://www.w3.org/2000/svg"><path d="m320 256-32-72h-192l-32 72-64 16v88h392v-88l-32 16-8-40zm0 0" fill="#dd3e46"/><path d="m144 360c0 26.507812-21.492188 48-48 48s-48-21.492188-48-48 21.492188-48 48-48 48 21.492188 48 48zm0 0" fill="#394d5c"/><path d="m112 360c0 8.835938-7.164062 16-16 16s-16-7.164062-16-16 7.164062-16 16-16 16 7.164062 16 16zm0 0" fill="#7d8d9c"/><path d="m344 360c0 26.507812-21.492188 48-48 48s-48-21.492188-48-48 21.492188-48 48-48 48 21.492188 48 48zm0 0" fill="#394d5c"/><path d="m312 360c0 8.835938-7.164062 16-16 16s-16-7.164062-16-16 7.164062-16 16-16 16 7.164062 16 16zm0 0" fill="#7d8d9c"/><path d="m296 280h-208l32-64h144zm0 0" fill="#87cee9"/><path d="m239.121094 216-11.601563 23.121094-39.679687-6.5625-16.480469-16.558594h-22.640625l25.921875 25.921875-15.28125 38.078125h17.28125l12.398437-31.039062 37.601563 6.238281 12.398437 24.800781h17.921876l-16-32 16-32zm0 0" fill="#4397aa"/><path d="m136 240h16v16h-16zm0 0" fill="#4397aa"/><path d="m424 408h-32v-224l32 16zm0 0" fill="#7d8d9c"/><path d="m0 272 32-8v40h-32zm0 0" fill="#ffd782"/><g fill="#7d8d9c"><path d="m352 400h16v16h-16zm0 0"/><path d="m328 424h16v16h-16zm0 0"/><path d="m376 432h16v16h-16zm0 0"/><path d="m424 168-32 16-48-88 32-16zm0 0"/></g><path d="m400 56c0 30.929688-25.070312 56-56 56s-56-25.070312-56-56 25.070312-56 56-56 56 25.070312 56 56zm0 0" fill="#ffd782"/><path d="m306.34375 58.34375 24-24 11.3125 11.3125-24 24zm0 0" fill="#e33e5c"/><path d="m338.34375 58.339844 24.003906-24 11.3125 11.3125-24 24.003906zm0 0" fill="#e33e5c"/><path d="m392 176.375 24 32 40-8-24 40 32 24-40 8 8 39.625-40-23.625-40 23.625 8-39.625-40-7.976562 32-24.023438-24-40 40 8zm0 0" fill="#fcf05a"/><path d="m178.34375 165.65625-29.65625-29.65625 32-32-18.34375-18.34375 11.3125-11.3125 29.65625 29.65625-32 32 18.34375 18.34375zm0 0" fill="#aabece"/><path d="m122.34375 149.65625-29.65625-29.65625 32-32-18.34375-18.34375 11.3125-11.3125 29.65625 29.65625-32 32 18.34375 18.34375zm0 0" fill="#aabece"/><path d="m242.34375 149.65625-29.65625-29.65625 32-32-18.34375-18.34375 11.3125-11.3125 29.65625 29.65625-32 32 18.34375 18.34375zm0 0" fill="#aabece"/><path d="m255.144531 400h-23.144531c-8.835938 0-16-7.164062-16-16v-24h-32v24c0 8.835938-7.164062 16-16 16s-16 7.164062-16 16v16h-23.144531c-8.039063-.179688-15.046875 5.429688-16.640625 13.3125-.792969 4.648438.507812 9.410156 3.550781 13.011719 3.042969 3.601562 7.519531 5.679687 12.234375 5.675781h40c8.835938 0 16-7.164062 16-16v-16h72c4.714844.003906 9.191406-2.074219 12.234375-5.675781 3.042969-3.601563 4.34375-8.363281 3.550781-13.011719-1.59375-7.882812-8.601562-13.492188-16.640625-13.3125zm0 0" fill="#7d8d9c"/><path d="m170.347656 325.65625 11.3125-11.3125 16 15.996094-11.3125 11.316406zm0 0" fill="#931c2e"/><path d="m202.34375 317.660156 11.3125-11.3125 24.003906 24.003906-11.3125 11.3125zm0 0" fill="#931c2e"/><path d="m40 424h16v16h-16zm0 0" fill="#7d8d9c"/><path d="m280 448h16v16h-16zm0 0" fill="#7d8d9c"/><path d="m432 440h16v16h-16zm0 0" fill="#7d8d9c"/></svg>