<?xml version="1.0" encoding="iso-8859-1"?>
<!-- Generator: Adobe Illustrator 19.0.0, SVG Export Plug-In . SVG Version: 6.00 Build 0)  -->
<svg version="1.1" id="Layer_1" xmlns="http://www.w3.org/2000/svg" xmlns:xlink="http://www.w3.org/1999/xlink" x="0px" y="0px"
	 viewBox="0 0 512 512" style="enable-background:new 0 0 512 512;" xml:space="preserve">
<rect x="443.733" y="337.067" style="fill:#8C5F50;" width="17.067" height="51.2"/>
<path style="fill:#A0D755;" d="M486.4,320c0,18.851-15.282,34.133-34.133,34.133S418.133,338.851,418.133,320
	c0-59.733,15.282-136.533,34.133-136.533S486.4,260.267,486.4,320z"/>
<path style="fill:#8CBE4B;" d="M443.733,320c0-48.988,7.713-109.376,18.286-129.547c-3.091-4.425-6.361-6.987-9.753-6.987
	c-18.852,0-34.133,76.8-34.133,136.533c0,18.851,15.281,34.133,34.133,34.133c3.412,0,6.643-0.653,9.753-1.585
	C451.471,348.33,443.733,335.438,443.733,320z"/>
<g>
	<rect x="238.933" y="302.933" style="fill:#959CB5;" width="17.067" height="42.667"/>
	<rect x="358.4" y="302.933" style="fill:#959CB5;" width="17.067" height="42.667"/>
</g>
<g>
	<rect x="273.067" y="226.133" style="fill:#8C5F50;" width="17.067" height="162.133"/>
	<rect x="110.933" y="320" style="fill:#8C5F50;" width="17.067" height="68.267"/>
	<rect x="51.2" y="337.067" style="fill:#8C5F50;" width="17.067" height="51.2"/>
</g>
<g>
	<path style="fill:#959CB5;" d="M196.267,311.467c-4.717,0-8.533,3.817-8.533,8.533s3.817,8.533,8.533,8.533
		c4.708,0,8.533,3.825,8.533,8.533v51.2h17.067v-51.2C221.867,322.949,210.383,311.467,196.267,311.467z"/>
	<path style="fill:#959CB5;" d="M418.133,311.467c-14.116,0-25.6,11.484-25.6,25.6v51.2H409.6v-51.2
		c0-4.708,3.825-8.533,8.533-8.533c4.717,0,8.533-3.817,8.533-8.533S422.849,311.467,418.133,311.467z"/>
</g>
<g>
	<path style="fill:#A0D755;" d="M179.2,277.333c0,32.99-26.743,59.733-59.733,59.733s-59.733-26.743-59.733-59.733
		c0-76.8,26.743-162.133,59.733-162.133S179.2,200.533,179.2,277.333z"/>
	<path style="fill:#A0D755;" d="M110.933,305.887c0,26.645-22.923,48.246-51.2,48.246s-51.2-21.6-51.2-48.246
		c0-62.031,22.923-130.954,51.2-130.954S110.933,243.856,110.933,305.887z"/>
	<circle style="fill:#A0D755;" cx="281.6" cy="183.467" r="59.733"/>
</g>
<path style="fill:#B4E66E;" d="M503.467,396.8H8.533C3.817,396.8,0,392.983,0,388.267s3.817-8.533,8.533-8.533h494.933
	c4.717,0,8.533,3.817,8.533,8.533S508.182,396.8,503.467,396.8z"/>
<g>
	<path style="fill:#8CBE4B;" d="M93.867,277.333c0-70.052,14.836-147.17,34.133-160.187c-2.788-1.253-5.635-1.947-8.533-1.947
		c-32.99,0-59.733,85.333-59.733,162.133c0,32.99,26.743,59.733,59.733,59.733c2.906,0,5.739-0.277,8.533-0.678
		C108.709,332.237,93.867,307.418,93.867,277.333z"/>
	<path style="fill:#8CBE4B;" d="M42.667,305.887c0-55.981,10.902-117.397,25.151-128.879c-2.64-1.241-5.327-2.075-8.084-2.075
		c-28.277,0-51.2,68.923-51.2,130.954c0,26.645,22.923,48.246,51.2,48.246c2.757,0,5.444-0.263,8.084-0.659
		C53.569,349.813,42.667,329.934,42.667,305.887z"/>
	<path style="fill:#8CBE4B;" d="M256,183.467c0-27.055,17.999-49.881,42.667-57.227c-5.411-1.612-11.132-2.507-17.067-2.507
		c-32.99,0-59.733,26.743-59.733,59.733S248.61,243.2,281.6,243.2c5.935,0,11.655-0.895,17.067-2.507
		C273.998,233.346,256,210.522,256,183.467z"/>
</g>
<g>
	<path style="fill:#EBC9A0;" d="M375.467,311.467H238.933c-4.713,0-8.533-3.821-8.533-8.533v-17.067
		c0-4.713,3.821-8.533,8.533-8.533h136.533c4.713,0,8.533,3.821,8.533,8.533v17.067C384,307.646,380.179,311.467,375.467,311.467z"
		/>
	<path style="fill:#EBC9A0;" d="M401.067,354.133H213.333c-4.717,0-8.533-3.817-8.533-8.533s3.817-8.533,8.533-8.533h187.733
		c4.717,0,8.533,3.817,8.533,8.533S405.783,354.133,401.067,354.133z"/>
</g>
<g>
</g>
<g>
</g>
<g>
</g>
<g>
</g>
<g>
</g>
<g>
</g>
<g>
</g>
<g>
</g>
<g>
</g>
<g>
</g>
<g>
</g>
<g>
</g>
<g>
</g>
<g>
</g>
<g>
</g>
</svg>
