<?xml version="1.0" encoding="iso-8859-1"?>
<!-- Generator: Adobe Illustrator 19.0.0, SVG Export Plug-In . SVG Version: 6.00 Build 0)  -->
<svg version="1.1" id="Layer_1" xmlns="http://www.w3.org/2000/svg" xmlns:xlink="http://www.w3.org/1999/xlink" x="0px" y="0px"
	 viewBox="0 0 512 512" style="enable-background:new 0 0 512 512;" xml:space="preserve">
<path style="fill:#DDAC5E;" d="M512,500.878c0,6.142-4.983,11.119-11.13,11.119H300.558c-0.013,0-0.026,0.002-0.039,0.002
	c-0.022,0-0.045-0.002-0.067-0.002h-55.51c-0.021,0-0.042,0.002-0.065,0.002c-0.016,0-0.031-0.002-0.047-0.002H89.048
	c-6.147,0-11.13-4.979-11.13-11.119s4.983-11.119,11.13-11.119h61.02L8.555,456.097c-5.98-1.422-9.673-7.418-8.25-13.393
	c1.424-5.974,7.427-9.662,13.405-8.242l232.466,55.296h52.788l154.326-44.051c5.913-1.689,12.071,1.732,13.759,7.638
	c1.688,5.905-1.734,12.059-7.644,13.746l-79.411,22.667H500.87C507.017,489.759,512,494.738,512,500.878z"/>
<path style="fill:#D6CEAE;" d="M436.84,343.558c-16.075,104.515-118.31,172.837-221.138,147.784l0,0
	C112.873,466.29,53.598,358.618,87.488,258.444c0,0,99.718-291.347,247.4-255.366l0,0C482.569,39.06,436.84,343.558,436.84,343.558z
	"/>
<path style="fill:#FFFFFF;" d="M262.242,445.09c-11.195-0.577-22.361-2.477-33.259-5.733c-6.024-1.801-9.446-8.14-7.644-14.157
	c1.802-6.018,8.149-9.438,14.171-7.638c32.378,9.679,66.19,5.476,95.209-11.825c29.019-17.303,48.771-45.04,55.617-78.103
	c1.273-6.152,7.294-10.106,13.454-8.835c6.157,1.272,10.116,7.29,8.843,13.442c-8.035,38.811-32.18,72.72-66.245,93.03
	C318.09,439.758,290.089,446.524,262.242,445.09z M411.693,275.475l0.117-2.272c0.324-6.274-4.504-11.621-10.784-11.945
	c-6.28-0.323-11.632,4.5-11.956,10.774l-0.117,2.272c-0.324,6.274,4.504,11.621,10.784,11.945
	C406.016,286.573,411.369,281.749,411.693,275.475z"/>
<path style="fill:#EFE8C5;" d="M146.108,366.729L146.108,366.729c-0.257-0.062-0.513-0.126-0.769-0.189
	c-46.678-11.583-73.38-60.664-58.437-106.337c0.191-0.587,0.386-1.172,0.584-1.757c0,0,99.718-291.347,247.399-255.366l0,0
	c0.112,0.028,0.225,0.055,0.337,0.082c18.412,4.546,31.899,20.211,34.288,39.008c11.13,87.556-2.265,176.775-2.265,176.775
	C351.172,323.458,248.937,391.781,146.108,366.729z"/>
<path style="fill:#877E73;" d="M336.445,145.039l-83.032,82.952l37.491,37.454c4.445,4.442,4.445,11.645,0,16.087
	c-2.223,2.221-5.138,3.331-8.051,3.331s-5.828-1.111-8.051-3.331l-83.032-82.952l-37.491,37.454
	c-2.223,2.221-5.138,3.331-8.051,3.331c-2.914,0-5.828-1.11-8.051-3.331c-4.447-4.442-4.447-11.645,0-16.087l37.491-37.454
	l-36.811-36.776c3.772-6.733,7.735-13.526,11.878-20.305l86.575,86.492l83.032-82.952c4.447-4.442,11.656-4.442,16.101,0
	C340.891,133.396,340.891,140.597,336.445,145.039z"/>
<g>
</g>
<g>
</g>
<g>
</g>
<g>
</g>
<g>
</g>
<g>
</g>
<g>
</g>
<g>
</g>
<g>
</g>
<g>
</g>
<g>
</g>
<g>
</g>
<g>
</g>
<g>
</g>
<g>
</g>
</svg>
