<?xml version="1.0" encoding="iso-8859-1"?>
<!-- Generator: Adobe Illustrator 19.0.0, SVG Export Plug-In . SVG Version: 6.00 Build 0)  -->
<svg version="1.1" id="Capa_1" xmlns="http://www.w3.org/2000/svg" xmlns:xlink="http://www.w3.org/1999/xlink" x="0px" y="0px"
	 viewBox="0 0 512 512" style="enable-background:new 0 0 512 512;" xml:space="preserve">
<path style="fill:#5F6E9B;" d="M101.204,152.887l-43.345-3.726c-13.424-1.154-25.242,8.792-26.395,22.216L20.748,296.083
	c0.032,0.286,11.812,75.52,11.812,75.52L1.269,454.564c-3.828,10.146,1.296,21.473,11.441,25.3c10.1,3.811,21.456-1.251,25.3-11.441
	l33.12-87.811c1.199-3.18,1.553-6.617,1.025-9.974l-11.161-71.092l51.704,4.445l10.721-124.707
	C124.574,165.858,114.627,154.04,101.204,152.887z"/>
<path style="fill:#FA870A;" d="M322.236,151.039c0,0-6.657-34.652,14.088-48.452c20.744-13.8,17.762-28.513,17.762-28.513
	s23.102,6.004,26.017,24.508c0,0,30.113,26.649,4.909,64.061C359.806,200.056,322.236,151.039,322.236,151.039z"/>
<path style="fill:#FFA50A;" d="M242.386,257.855c0,0-26.284-46.17-11.684-86.873c14.6-40.703,11.684-68.295,11.684-68.295
	s43.791,21.329,52.007,35.482c0,0,3.808-23.002,23.646,0.535c19.837,23.537,49.499,53.028,39.759,84.935
	C348.057,255.545,242.386,257.855,242.386,257.855z"/>
<path style="fill:#CD5014;" d="M394.274,84.454c-18.42-23.34-9.697-38.506-4.728-44.236c1.035-1.193,0.257-3.067-1.318-3.181
	c-7.584-0.55-24.241,1.329-33.208,26.016c-0.018,0.051-0.03,0.104-0.048,0.155c-3.74-4.996-10.136-7.121-15.285-8.016
	c-1.96-0.341-3.092,2.194-1.524,3.418c18.574,14.5-12.072,28.984-20.505,45.042c-10.93,20.813,1.528,33.403,8.858,38.597
	c1.421,1.007,3.381-0.247,3.014-1.949c-2.785-12.873,5.159-28.284,14.95-34.744c9.9-6.532,12.408-12.947,13.511-22.126
	c0.197-1.644,2.266-2.317,3.356-1.07c6.929,7.921,7.224,22.808,1.578,32.95c-0.716,1.285,0.221,2.875,1.692,2.86
	c3.129-0.033,7.801-0.911,11.024-5.24c0.594-0.798,1.686-1.082,2.538-0.57c10.263,6.175,12.059,25.845,4.182,40.379
	c-0.75,1.383,0.429,3.043,1.984,2.815C400.341,153.213,419.473,116.385,394.274,84.454z"/>
<path style="fill:#FF640A;" d="M310.615,100.078c-47.753-21.314-46.551-52.062-43.488-65.046c0.638-2.703-2.103-4.987-4.65-3.878
	c-12.262,5.336-36.674,21.865-30.482,67.643c0.013,0.094,0.038,0.187,0.053,0.281c-9.906-4.728-21.604-2.815-30.356-0.005
	c-3.332,1.069-3.024,5.942,0.419,6.569c40.773,7.418,4.865,55.006,4.843,86.905c-0.028,41.345,29.658,50.785,45.318,52.889
	c3.036,0.407,5.066-3.146,3.102-5.496c-14.851-17.778-15.062-48.27-5.087-66.328c10.087-18.26,8.755-30.3,2.976-45.499
	c-1.035-2.721,1.638-5.458,4.353-4.407c17.261,6.68,29.879,29.628,29.367,50.036c-0.065,2.586,2.693,4.298,4.972,3.074
	c4.847-2.606,11.408-7.789,12.892-17.166c0.273-1.728,1.742-3.063,3.488-2.959c21.03,1.238,39.892,30.412,39.488,59.482
	c-0.038,2.766,3.152,4.39,5.39,2.764C376.217,202.228,375.944,129.237,310.615,100.078z"/>
<polygon style="fill:#A0EBFF;" points="266.349,345.776 485.005,274.584 493.855,363.063 343.278,412.09 "/>
<polygon style="fill:#6EE1FF;" points="331.7,401.52 343.01,411.27 493.588,362.243 492.286,349.235 "/>
<g>
	<polygon style="opacity:0.5;fill:#FFFFFF;enable-background:new    ;" points="441.579,380.084 461.618,373.56 476.596,277.321 
		456.556,283.847 	"/>
	<polygon style="opacity:0.5;fill:#FFFFFF;enable-background:new    ;" points="399.948,302.278 379.909,308.802 365.095,403.992 
		367.161,404.314 384.971,398.515 	"/>
	<polygon style="opacity:0.61;fill:#FFFFFF;enable-background:new    ;" points="348.432,410.412 358.452,407.15 373.429,310.912 
		363.409,314.175 	"/>
</g>
<path style="fill:#50555A;" d="M448.555,171.214l45.34-14.762c1.51-0.492,3.133,0.334,3.624,1.844l4.51,13.854
	c0.492,1.51-0.333,3.133-1.844,3.624l-45.34,14.762L448.555,171.214z"/>
<path style="fill:#2896FF;" d="M159.042,357.31c7.121,21.874,30.627,33.838,52.501,26.715l59.308-19.31l61.48,57.052
	c5.641,5.208,13.68,6.966,20.98,4.589l144.03-46.894c9.405-3.063,15.529-12.43,14.559-22.275l-9.341-100.287l-30.212-92.79
	c-0.65,0.165-25.908,7.737-25.908,7.737l-300.8,97.937c0,0-12.857,5.709-13.169,5.918
	C134.601,282.244,150.143,329.981,159.042,357.31z M287.688,348.348l11.137-3.626l-0.044-0.136l99.727-32.47l21.975,67.491
	l-73.146,23.815L287.688,348.348z M488.163,357.57l-45.184,14.711l-21.975-67.492l60.033-19.546L488.163,357.57z"/>
<path style="fill:#1E87DC;" d="M124.026,302.654c-4.2-12.899,2.852-26.76,15.752-30.959L473.19,163.139
	c5.267-1.715,10.927,1.164,12.641,6.432l8.999,27.639c1.715,5.267-1.164,10.927-6.432,12.641L154.985,318.406
	C142.086,322.606,128.225,315.553,124.026,302.654z"/>
<path style="fill:#1E73BE;" d="M349.447,294.845l24.107-7.849c4.531-1.476,9.4,1.002,10.875,5.534
	c1.476,4.531-1.001,9.4-5.533,10.876l-24.107,7.849c-4.531,1.476-9.4-1.002-10.875-5.534S344.916,296.321,349.447,294.845z"/>
<path style="fill:#1E87DC;" d="M175.269,349.624c8.347-2.717,12.91-11.687,10.192-20.033c-2.717-8.347-11.687-12.91-20.034-10.192
	l-16.934,5.513c1.921,5.902,7.74,23.772,9.841,30.226L175.269,349.624z"/>
<path style="fill:#FAC855;" d="M160.371,360.825l16.767-5.459c8.347-2.717,12.91-11.687,10.192-20.033
	c-2.717-8.347-11.687-12.91-20.034-10.192l-16.934,5.513C159.883,359.892,159.329,358.385,160.371,360.825z"/>
<path style="fill:#FF640A;" d="M471.7,220.166c-0.793-2.437,0.539-5.055,2.975-5.849l12.675-4.127l11.703,35.944l-12.675,4.127
	c-2.437,0.793-5.055-0.539-5.849-2.976L471.7,220.166z"/>
<path style="fill:#1E73BE;" d="M256.968,233.538l-98.014,31.913l0,0c9.002,27.646,38.71,42.76,66.355,33.759
	c27.63-8.996,42.74-38.674,33.774-66.305C257.773,233.297,256.968,233.538,256.968,233.538z"/>
<circle style="fill:#373C41;" cx="209.007" cy="249.153" r="40.675"/>
<circle style="fill:#696E73;" cx="209.007" cy="249.153" r="16.475"/>
<path style="fill:#82878C;" d="M214.112,264.819l-10.202-31.333c-8.652,2.817-13.383,12.115-10.565,20.767
	S205.459,267.636,214.112,264.819z"/>
<g>
	
		<rect x="418.893" y="369.685" transform="matrix(0.9509 -0.3096 0.3096 0.9509 -94.2811 151.6677)" style="fill:#1E87DC;" width="23.66" height="6.407"/>
	
		<rect x="285.142" y="309.362" transform="matrix(0.9509 -0.3096 0.3096 0.9509 -77.938 134.5615)" style="fill:#1E87DC;" width="199.711" height="6.961"/>
</g>
<path style="fill:#1E73BE;" d="M277.783,362.471c-2.987-9.173,2.028-19.03,11.201-22.017l16.61-5.408l10.816,33.219l-16.61,5.408
	C290.627,376.66,280.769,371.644,277.783,362.471L277.783,362.471z"/>
<g>
	<path style="fill:#1E87DC;" d="M173.067,377.301c10.543,8.192,24.828,11.181,38.479,6.737l59.308-19.31
		c-10.147-8.664-24.07-11.428-36.757-7.298L173.067,377.301z"/>
	
		<rect x="394.787" y="235.239" transform="matrix(0.9509 -0.3096 0.3096 0.9509 -64.3278 136.5858)" style="fill:#1E87DC;" width="6.788" height="71.466"/>
</g>
<path style="fill:#1E73BE;" d="M446.44,171.848l-98.014,31.913l0,0c9.002,27.646,38.71,42.76,66.355,33.759
	c27.63-8.996,42.74-38.674,33.774-66.305C447.244,171.607,446.44,171.848,446.44,171.848z"/>
<circle style="fill:#373C41;" cx="398.48" cy="187.46" r="40.675"/>
<circle style="fill:#696E73;" cx="398.48" cy="187.46" r="16.475"/>
<path style="fill:#82878C;" d="M403.584,203.129l-10.202-31.333c-8.652,2.817-13.383,12.115-10.565,20.767
	S394.932,205.946,403.584,203.129z"/>
<path style="fill:#414B82;" d="M119.413,481.127c-10.721,0.001-19.481-8.616-19.627-19.369l-1.269-93.832l-33.428-73.97
	c-4.466-9.882-0.075-21.512,9.807-25.978c9.881-4.467,21.511-0.075,25.978,9.807l35.113,77.7c1.111,2.46,1.704,5.122,1.741,7.82
	l1.325,97.923c0.147,10.843-8.524,19.751-19.366,19.897C119.593,481.126,119.503,481.127,119.413,481.127z"/>
<path style="fill:#CD2D23;" d="M112.699,303.989l-91.952-7.905l10.717-124.706c1.153-13.416,12.973-23.372,26.396-22.217
	l43.344,3.726c13.424,1.154,23.371,12.971,22.216,26.396L112.699,303.989z"/>
<circle style="fill:#AB5D3E;" cx="89.976" cy="102.59" r="36.113"/>
<path style="fill:#BA6746;" d="M135.593,47.59l15.976,63.388c1.339,5.313-0.07,10.943-3.754,15L94.238,184.96
	c-6.076,6.689-16.423,7.185-23.113,1.11c-6.693-6.072-7.185-16.423-1.11-23.113l47.678-52.49l-13.831-54.881
	c-2.209-8.762,3.105-17.656,11.867-19.864C124.48,33.517,133.384,38.82,135.593,47.59z"/>
<path style="fill:#BE1E14;" d="M102.516,127.175l-32.501,35.782c-6.076,6.689-5.583,17.041,1.11,23.113
	c6.689,6.075,17.037,5.58,23.113-1.11l33.672-37.069L102.516,127.175z"/>
<g>
</g>
<g>
</g>
<g>
</g>
<g>
</g>
<g>
</g>
<g>
</g>
<g>
</g>
<g>
</g>
<g>
</g>
<g>
</g>
<g>
</g>
<g>
</g>
<g>
</g>
<g>
</g>
<g>
</g>
</svg>
